<svg width="165" height="279" viewBox="0 0 165 279" fill="none" xmlns="http://www.w3.org/2000/svg">
<path fill-rule="evenodd" clip-rule="evenodd" d="M77.5451 63.7828C77.0296 64.241 77.3114 64.3589 76.7805 64.7786C75.6334 65.6852 76.1582 66.0931 76.1455 66.4656C76.12 67.2068 75.6455 67.3837 76.4927 68.3417L76.582 68.239C76.5924 68.228 76.6201 68.2008 76.6306 68.1899C76.6353 68.1851 76.7207 68.1363 76.7313 68.0892C76.7384 68.058 76.7676 68.0576 76.7859 68.042C76.5521 67.7221 76.5595 67.6669 76.6024 67.2028C76.8357 67.4289 77.3301 68.429 77.2851 68.7623C77.1866 69.4906 74.4018 70.8903 73.8683 72.0134C67.4171 72.3207 67.6221 71.1514 64.4568 71.1064C62.5356 71.0791 61.9578 70.4778 60.3951 69.9075C59.0576 69.4193 57.5804 69.2669 56.0867 68.9858C54.9742 68.7765 48.8742 67.3995 48.2138 66.282C47.813 65.6037 47.6847 65.2042 47.2346 64.6409L46.0966 63.1621C45.9521 62.938 45.8152 62.4285 45.5666 62.3201C45.0976 62.1157 44.9473 62.5122 44.9889 62.8939C45.0714 63.6515 45.784 63.866 45.7206 64.8161C44.0915 65.6367 40.2142 63.4648 39.3606 64.3845C39.6539 64.9539 41.3508 65.1611 42.0819 65.3974C42.488 65.5286 42.6553 65.5324 42.8089 65.9022C41.9467 65.9228 39.0522 65.0741 38.5756 65.8492C38.9751 66.5348 41.7195 66.5165 42.5668 66.6729L42.2353 66.8502C41.3092 67.0567 39.6686 66.4485 38.9614 66.9491C38.9464 68.1133 42.4513 67.2675 43.1163 67.8383C43.0425 67.8938 43.0591 67.8975 42.8964 67.9582L42.3607 68.0431C41.7348 68.0937 40.7118 68.0988 40.3223 68.5067C40.6864 69.0017 41.8641 68.8314 42.5197 68.7342C43.7712 68.5487 43.7485 68.6368 44.8498 68.9096C46.9739 69.4358 46.1919 68.6996 49.0573 69.9382C51.4599 70.9767 54.081 71.8733 56.5349 72.8244C57.5082 73.2016 67.2423 76.5394 68.2542 76.7026C69.6015 76.9199 71.0858 76.7739 72.4504 76.9958C72.5406 77.0104 72.6284 77.0283 72.7167 77.0531C73.0686 77.1518 72.8533 77.0869 72.9779 77.1557C72.9153 78.3204 72.9465 80.3186 73.6913 81.016C73.7264 79.6144 73.6969 79.5006 74.0254 78.2611C74.2549 79.7733 74.3015 81.5192 75.464 82.115C75.4828 81.1725 75.5197 79.2209 76.0258 78.3647C76.2805 77.9341 76.0089 78.2426 76.3162 78.0922C76.5308 78.3672 76.6552 79.8149 76.8604 80.3477C77.0696 80.891 77.2721 81.3348 77.618 81.7808C77.6809 81.862 77.6895 81.8767 77.7798 81.9588C77.987 82.1469 77.6564 81.9396 78.0031 82.1154L77.97 80.8319C78.0709 80.9606 77.9835 80.8217 78.0846 81.0141C78.4633 81.7342 78.729 82.471 79.1838 83.1552C80.8743 85.6977 81.3576 88.3579 80.461 91.3805C77.9434 99.8675 77.9006 101.023 77.4925 109.318C77.3838 111.528 76.5156 112.97 76.1946 114.97C76.0291 116.001 76.0831 117.23 75.9864 118.299C75.666 121.841 73.4938 123.976 73.2276 125.978L74.2001 126.241C73.9398 127.745 72.7644 131.714 72.0415 132.59C71.6847 133.022 71.4561 133.281 71.0491 133.689L70.0877 134.819C69.4693 135.546 68.2895 135.895 67.901 136.841C69.1161 136.972 69.9246 136.277 72.0761 136.429C71.6992 137.305 70.0025 139.479 69.3769 140.388C69.6217 141.137 69.8912 140.956 68.9894 141.575C67.3118 142.726 66.1972 145.587 65.0878 147.2C63.8514 148.998 64.0768 147.814 64.1228 149.898L63.1644 149.471C62.9634 150.388 63.0232 151.065 62.3219 151.435C62.122 151.013 61.8533 149.549 61.7108 148.988C61.1221 146.672 60.3454 144.306 59.4723 142.123C56.6637 135.101 53.1161 128.436 49.1091 122.124C48.2534 120.777 47.4563 119.751 46.574 118.591C43.206 114.161 40.1061 109.041 37.2678 103.503C34.4677 98.0393 31.805 92.1823 31.5372 84.968C31.2659 77.6599 33.1193 70.7136 35.6694 64.8103C38.1345 59.104 39.8638 56.9325 43.319 52.6705C43.975 51.8615 44.8349 51.1227 45.5094 50.3626C46.6787 49.045 48.1125 47.8276 49.4825 46.6899L52.0262 44.7338C60.1737 39.1109 68.4185 35.803 79.1048 35.4216C93.5733 34.9051 107.392 40.3289 116.073 47.1029C120.018 50.181 124.42 54.9239 126.918 60.6497C128.22 63.6342 129.224 66.5376 129.862 69.8533C131.919 80.5416 130.524 91.6542 127.013 101.606C125.917 104.713 124.673 107.265 123.28 110.023C121.872 112.81 120.143 114.955 118.647 117.532C113.172 126.964 107.047 133.425 102.834 144.223C102.655 144.682 101.539 148.495 101.282 148.771C99.478 146.626 100.421 148.353 98.507 145.069C97.1121 142.675 97.5991 143.239 95.2195 141.973C94.6649 141.678 94.6127 141.75 94.2278 141.284C93.9842 140.99 93.7124 140.769 93.4595 140.486L88.6085 135.704C88.7308 135.573 88.4502 135.625 88.8608 135.529C89.1043 135.354 88.3668 135.476 88.1215 135.488C87.8027 135.504 87.5044 135.53 87.1733 135.554C86.6847 135.59 85.6872 135.555 85.3182 135.786L82.9756 138.498C82.1846 139.403 81.6715 140.51 80.8886 141.39C80.6619 141.057 80.1346 138.478 79.9716 137.856C79.6692 136.701 79.3417 135.587 78.9504 134.475C78.5245 133.265 78.3029 133.338 78.2032 133.025C77.9114 132.11 78.5723 129.582 78.3223 128.933C78.1846 128.575 77.0526 127.511 78.1896 127.237C78.4898 127.165 79.0957 127.171 79.5464 127.026C79.9115 126.29 79.9599 125.069 80.1691 124.172C80.3249 123.504 80.8853 122.39 81.1929 121.846C83.6597 117.488 83.5942 116.889 84.827 111.974C85.0418 111.117 85.2845 110.213 85.5576 109.357C85.7046 108.895 85.8065 108.542 85.9683 108.092C86.1202 107.669 86.3425 107.289 86.4073 106.875C86.5911 106.08 86.42 103.388 86.4087 102.386C86.3923 100.944 86.3808 99.5428 86.3576 98.0934C86.2664 92.4131 86.3901 86.0419 86.1901 80.5537C86.1171 78.5507 85.9289 73.9089 86.4549 72.1409C87.1233 71.8808 88.2591 71.8734 88.6628 71.3102C88.9902 70.8535 88.6469 70.658 88.5263 70.256C88.3265 69.5901 88.8808 69.9347 88.2042 69.3039C88.5499 68.4944 88.1994 68.9109 88.06 68.3184C87.9663 67.9201 88.3379 67.8877 88.3392 67.1661C88.1943 67.1004 87.8701 67.0172 87.6855 66.9079C87.5323 66.8173 87.5725 66.836 87.4691 66.7185C87.4552 66.7028 87.4382 66.6767 87.4248 66.6602C86.8825 65.9896 87.043 65.6283 86.7438 65.2287C86.604 65.042 86.4786 64.9966 86.2993 64.7323C86.0158 64.3143 85.9261 63.9448 85.5917 63.6674C85.2534 63.3868 85.3534 63.6261 85.1454 63.2171L85.9183 63.0512C85.9287 63.0234 85.9642 63.0339 85.9829 63.0186C84.9614 62.9361 85.2721 62.9755 85.0385 62.6436C84.6426 62.0809 84.8156 62.4947 84.3256 62.0294C84.1745 62.3749 84.3669 62.2126 83.9246 62.4167C83.9027 62.4 83.8801 62.3685 83.8675 62.3568C83.5513 62.0614 83.6306 62.1518 83.474 62.1691C81.9565 62.3375 82.7668 61.9127 81.7549 62.2652L81.4739 61.8281C81.0817 62.8592 80.8505 62.457 80.02 62.5903C79.5609 62.6639 80.0833 62.8713 78.7902 62.6811L78.6898 62.6656C78.6847 62.6477 78.6562 62.656 78.6393 62.6575C78.5498 63.1477 78.6757 62.7831 78.4442 63.0997C78.3506 63.2275 78.2705 63.2905 78.1724 63.3605C78.0031 63.4814 78.0419 63.4265 77.8533 63.55C77.6774 63.6651 77.7544 63.6416 77.545 63.7828H77.5451ZM77.7481 28.1351C77.179 28.19 76.6035 28.1772 76.1485 28.2364C75.6446 28.3021 74.909 28.3704 74.4492 28.3704L68.6401 29.3567C67.9761 29.5144 66.017 29.866 65.4994 30.1695C64.2063 30.4859 62.8653 30.95 61.6191 31.4006C60.9722 31.6345 60.3354 31.8755 59.7276 32.1248C59.2098 32.3372 58.4584 32.7153 57.9618 32.8432C57.3846 33.0535 56.9168 33.3721 56.3768 33.5901C56.0536 33.7205 55.8956 33.7815 55.5982 33.9631C55.2924 34.1499 55.2018 34.2478 54.8276 34.3376C54.5627 34.6448 52.8222 35.4983 52.3169 35.8105C51.8335 36.1092 50.2232 37.1666 49.7961 37.3029C49.5409 37.5754 48.7795 38.005 48.3925 38.273C47.8922 38.6198 47.49 38.9418 47.0019 39.258L41.1069 44.2871C40.7988 44.7357 40.1903 45.252 39.7721 45.6702C39.5324 45.9099 39.311 46.1028 39.0924 46.3515C38.775 46.713 38.8054 46.8489 38.3629 47.1097L34.8854 51.3852C34.8764 51.367 34.8464 51.4244 34.8253 51.4424C34.4713 51.9581 34.1245 52.4529 33.7785 52.9723C33.5946 53.2482 33.4308 53.4948 33.2339 53.7886C33.0414 54.0756 32.8964 54.3793 32.6875 54.6474C32.5052 55.0957 32.0327 55.7974 31.7495 56.2822C31.4335 56.8236 31.1498 57.377 30.8654 57.9154C30.5479 58.5164 29.4494 60.9078 29.1722 61.2206L27.4971 65.4302L25.959 70.4553C25.6976 71.1427 25.0022 73.9561 24.9845 74.7475C24.8128 75.8969 24.6173 77.0373 24.4847 78.2146C24.4178 78.8079 24.2884 81.5736 24.1471 81.8247C24.1471 82.711 24.1481 83.5974 24.147 84.4836C24.1458 85.4832 24.2517 86.0567 24.2517 87.0292L24.9845 91.9166C24.9946 92.3692 25.3723 93.8192 25.4951 94.2326C25.6011 94.5896 25.7127 94.979 25.7992 95.2894C25.9233 95.7349 26.0481 96.023 26.136 96.4422C26.3489 96.7346 26.6406 97.7684 26.7988 98.1631C27.0349 98.7521 27.2305 99.2079 27.4731 99.7912C27.912 100.847 28.4997 101.976 28.8609 103.014L31.5089 108.424C31.7494 108.905 31.9734 109.24 32.2074 109.714C33.283 111.895 36.0467 116.309 37.5264 118.528C39.3256 121.227 40.9278 123.163 42.5529 125.541L47.0693 133.169L52.3386 144.126C53.8026 147.803 55.5302 152.863 55.5493 157.037L55.9733 164.675C55.9625 166.776 56.1909 167.423 56.1842 168.442L56.0892 171.185C56.051 171.649 56.1518 171.638 56.1789 172.111C56.3217 174.61 57.2222 176.442 58.752 177.6C60.3089 178.777 62.6265 179.057 65.0201 179.393C66.128 179.548 67.5203 179.735 68.6406 179.75L72.4849 179.989C74.0431 180.202 87.3012 180.383 88.411 180.259C89.0157 180.191 89.5567 180.167 90.311 180.17L95.9949 179.782C100.189 179.236 104.892 178.794 105.866 173.53C106.157 171.957 106.064 167.341 106.284 165.887C106.368 165.331 106.362 164.529 106.418 164.032C106.657 161.889 106.455 160.896 106.912 158.454C107.13 157.288 107.318 156.288 107.54 155.105C108.453 150.253 109.802 145.775 112.12 141.469L115.088 136.376C116.389 134.187 118.477 131.287 119.957 129.101L121.634 126.694C123.001 124.644 124.235 122.379 125.507 120.412C126.944 118.19 128.864 115.323 130.058 112.924L133.248 105.96C133.433 105.502 133.603 104.929 133.832 104.479C133.966 103.624 134.623 102.092 134.913 101.136C135.104 100.507 135.669 98.155 135.955 97.7914C135.967 97.2478 136.297 96.1573 136.438 95.5397C136.58 94.9142 136.884 93.8781 136.897 93.2775L137.735 88.3523C137.735 87.426 137.916 86.7641 137.944 85.8447C137.964 85.2235 138.188 83.7682 138.119 83.2273C138.06 82.1198 138.174 80.8144 138.157 79.6679C138.141 78.4882 138.114 77.3579 138.049 76.2131C138.049 75.3498 137.999 74.5693 137.885 73.7598C137.83 73.3692 137.791 72.9334 137.754 72.6343C137.694 72.1494 137.63 71.889 137.63 71.4155L136.688 66.6864C136.598 65.6122 135.249 61.7798 135.222 61.4519C134.93 61.0776 134.13 58.8357 133.863 58.2041C133.481 57.2976 132.657 55.9492 132.417 55.1706C131.854 54.3028 131.32 53.182 130.532 52.0086C130.288 51.6448 130.089 51.3639 129.883 50.9896C129.587 50.7741 128.704 49.4761 128.364 49.0491C128.12 48.743 127.836 48.36 127.575 48.056C127.243 47.6694 127.065 47.5256 126.839 47.1095L124.204 44.4136C124.048 44.2565 123.95 44.1422 123.779 44.0007C123.547 43.8089 123.446 43.7872 123.287 43.5482C122.885 43.3303 122.9 43.2283 122.552 42.9263L117.533 39.0485C116.947 38.745 116.442 38.3412 115.861 37.9956C115.588 37.8338 115.283 37.6465 115.011 37.484C114.729 37.3153 114.342 37.1213 114.075 36.9052C113.472 36.7158 112.297 35.9827 111.63 35.6301C111.019 35.3077 109.503 34.7245 109.132 34.3375C108.844 34.2628 108.588 34.1178 108.256 33.9794C107.903 33.8315 107.743 33.7343 107.39 33.5897C106.839 33.3637 106.138 33.088 105.595 32.8219C104.992 32.698 104.275 32.3568 103.704 32.1451L98.9655 30.6029C98.7858 30.553 98.6635 30.5301 98.4771 30.4676L98.0574 30.2546C97.7596 30.2479 95.1469 29.6288 94.9166 29.5347L89.0565 28.4747C88.451 28.4747 88.0061 28.4172 87.41 28.3391C86.9523 28.2791 86.2478 28.2541 85.7629 28.1608C85.4912 28.2792 82.503 28.0573 81.8303 28.0551C80.4577 28.0506 79.0629 28.1347 77.7475 28.1347L77.7481 28.1351Z" fill="#FF6D00"/>
<path fill-rule="evenodd" clip-rule="evenodd" d="M60.7881 187.603C60.7881 189.737 60.8369 193.344 61.3103 195.142C61.656 196.454 62.5105 198.186 63.2842 199.24C64.8894 201.426 66.6297 202.65 69.2538 203.53C72.4098 204.588 82.557 204.249 86.5415 204.249C90.1299 204.249 93.5096 203.325 95.9363 200.976L96.8786 200.034C98.1452 198.725 98.8981 197.241 99.5111 195.338C100.292 192.913 99.8994 187.98 99.9377 184.877C99.9448 184.297 100.042 184.21 100.051 183.629C100.066 182.688 99.9419 182.102 99.9419 181.112C99.3303 181.163 98.5236 181.338 97.854 181.432C94.5744 181.893 92.01 182.092 88.7346 182.363C88.3334 182.396 87.8867 182.346 87.4833 182.368C87.0094 182.393 86.9112 182.476 86.3359 182.477C84.5623 182.479 83.1627 182.578 81.4119 182.578C79.5343 182.578 77.9682 182.501 76.0686 182.477L68.3265 181.949C67.5496 181.916 66.6578 181.809 65.8309 181.723L60.8928 181.112C60.8928 183.407 60.7882 185.349 60.7882 187.603H60.7881Z" fill="#FF6D00"/>
<path fill-rule="evenodd" clip-rule="evenodd" d="M77.5447 63.7829C77.754 63.6417 77.6771 63.6652 77.853 63.5501C78.0415 63.4268 78.0028 63.4816 78.172 63.3606C78.27 63.2906 78.3502 63.2278 78.4438 63.0998C78.6753 62.7832 78.5495 63.1478 78.639 62.6576C78.656 62.6561 78.6843 62.6478 78.6894 62.6657L78.7899 62.6812C80.083 62.8713 79.5606 62.664 80.0196 62.5904C80.8502 62.4572 81.0814 62.8594 81.4736 61.8282L81.7545 62.2653C82.7664 61.9128 81.9561 62.3376 83.4737 62.1692C83.6304 62.1519 83.551 62.0616 83.8672 62.3569C83.8797 62.3686 83.9024 62.4001 83.9242 62.4168C84.3664 62.2127 84.174 62.375 84.3253 62.0295C84.8152 62.4947 84.6423 62.081 85.0382 62.6437C85.2717 62.9756 84.961 62.9362 85.9826 63.0187C85.9639 63.034 85.9284 63.0235 85.9179 63.0513L85.145 63.2172C85.3531 63.6262 85.253 63.3868 85.5914 63.6675C85.9257 63.9449 86.0155 64.3144 86.299 64.7324C86.4782 64.9967 86.6037 65.0421 86.7435 65.2288C87.0427 65.6284 86.8822 65.9897 87.4245 66.6603C87.4378 66.6768 87.455 66.7027 87.4687 66.7186C87.5722 66.8361 87.532 66.8174 87.6852 66.908C87.8698 67.0173 88.194 67.1005 88.3388 67.1662C88.3374 67.8878 87.9658 67.9202 88.0596 68.3185C88.1991 68.911 88.5495 68.4945 88.2039 69.304C88.8804 69.9348 88.3262 69.5902 88.526 70.2561C88.6466 70.6579 88.9899 70.8536 88.6625 71.3103C88.2587 71.8734 87.1228 71.8809 86.4545 72.141C85.9286 73.9091 86.1168 78.5508 86.1897 80.5538C86.3898 86.042 86.2661 92.4132 86.3572 98.0935C86.3805 99.5429 86.3921 100.944 86.4084 102.386C86.4198 103.388 86.5908 106.08 86.407 106.875C86.6765 106.779 86.5371 106.61 86.6218 106.992C86.6218 110.01 86.7838 112.96 86.7525 115.995C86.7153 119.58 86.0714 120.456 84.9797 123.33L82.8618 130.314C82.3051 132.749 83.313 131.522 82.5515 134.092C81.9262 136.202 83.7772 135.576 85.3178 135.786C85.6867 135.555 86.6842 135.59 87.1728 135.554C87.5039 135.53 87.8023 135.504 88.121 135.488C88.3664 135.476 89.1038 135.354 88.8603 135.529C89.1616 135.762 89.8356 135.754 90.2946 135.8C91.5204 135.924 93.7293 136.294 94.4771 135.577C94.4137 134.355 89.8702 132.163 89.131 131.916C89.5834 131.571 90.0415 131.832 90.7016 131.272C90.7974 129.91 89.6383 130.194 90.6391 127.212C91.6093 124.32 91.3341 125.467 91.2772 123.008C91.2382 121.319 92.1419 121.451 92.9073 119.638C93.4582 118.333 93.4646 116.898 93.7335 115.433C94.1751 113.025 95.343 111.78 95.6413 107.309C95.8554 104.099 95.4219 101.186 94.8022 98.1992C94.5115 96.7976 94.2077 95.4889 93.8047 94.181C93.4074 92.8917 92.9019 91.6704 92.6225 90.3348C91.9741 87.2339 93.0959 85.182 93.2063 83.8236C93.2683 83.0602 93.0967 82.3207 93.1121 81.5471C93.1692 78.6997 95.6697 81.4606 100.881 80.513C102.503 80.2179 103.419 79.8067 105.196 79.9387C106.038 80.0014 106.752 79.7576 107.488 79.9735C108.168 80.1731 108.748 80.4604 109.545 80.2688C109.391 79.6383 108.035 79.7255 107.553 79.3541C108.191 79.0032 109.892 79.7425 110.828 79.3789C110.787 78.9551 110.87 79.0178 110.294 78.9522C109.688 78.8829 108.489 78.9086 108.119 78.5279C108.713 78.5012 109.21 78.5648 109.78 78.5869C110.744 78.6242 111.072 78.7229 111.285 78.3072C110.79 77.7518 108.763 78.0131 108.08 77.9292C108.596 77.1503 110.641 77.9006 110.887 77.0978C109.984 76.3253 106.842 77.6386 106.104 76.745C105.777 76.044 107.072 75.8835 106.817 74.8863C106.172 74.7503 106.325 75.1647 105.846 75.5215C104.587 76.4581 103.96 77.6797 103.355 77.8412C101.718 78.2785 99.5196 77.1336 97.8427 76.9439C95.3409 76.6609 95.3004 76.8395 92.7878 75.5163C92.0303 75.1173 91.4558 74.7184 90.6329 74.4224C90.2037 74.2679 89.814 74.1659 89.349 74.0324L88.3963 73.7241C87.6938 73.3536 88.3508 71.9999 88.8407 71.6006C89.8545 70.7742 91.0958 71.1013 90.3753 69.7583C90.0038 69.0657 90.4814 69.3408 90.247 68.166C90.1466 67.6637 90.0639 68.0711 89.8965 67.5242C90.1122 67.0011 90.4591 67.0775 90.5283 66.4773C90.193 66.164 89.6123 66.0097 89.2445 65.7615C88.9041 65.5318 88.9898 65.5019 88.8473 65.1618L88.3359 63.9533C87.9885 62.8895 88.6581 63.8536 87.5546 61.8569C87.8771 62.0086 87.863 61.997 88.0847 62.2498C87.9238 61.8404 87.661 61.6231 87.3304 61.2943L86.5777 60.6618L87.1686 60.5093C86.4752 59.9765 85.1579 60.0598 84.1334 60.0378C82.8713 60.0107 82.2737 60.2118 81.2944 60.7061C80.8875 60.9115 80.5529 61.1721 80.1788 61.3708C79.8057 61.5688 79.3617 61.6413 79.0232 61.8901C78.5323 62.251 77.709 63.1634 77.5444 63.7829H77.5447Z" fill="#FF9547"/>
<path fill-rule="evenodd" clip-rule="evenodd" d="M106.956 269.993C106.956 272.865 105.319 275.646 102.559 275.646C100.771 275.646 99.8436 275.727 98.2709 274.7C95.4108 272.834 95.7681 268.288 97.2202 266.12L93.9748 264.34C93.7408 264.782 93.5241 265.133 93.2756 265.63C91.9986 268.184 91.4088 271.579 92.752 274.252C93.3612 275.464 93.6305 275.765 94.5235 276.668C95.712 277.87 98.2002 278.996 100.57 278.996C102.591 278.996 103.582 279.091 105.537 278.309C107.194 277.646 108.901 276.25 109.715 274.636C110.059 273.953 110.725 272.592 110.725 271.668C111.056 271.745 111.19 271.859 111.472 271.968C113.516 272.757 115.878 272.506 118.053 272.506C119.75 272.506 120.231 271.789 120.88 271.354C121.16 271.429 121.444 271.64 121.715 271.775C122.518 272.174 123.763 272.505 124.753 272.505H148.099C148.34 272.505 148.413 272.433 148.413 272.191V251.254C148.413 251.012 148.34 250.939 148.099 250.939H144.644C144.403 250.939 144.33 251.012 144.33 251.254V269.155H139.515C138.316 269.155 138.201 264.505 137.483 262.707C136.556 260.386 134.624 259.315 131.767 259.315C130.617 259.315 128.334 259.79 127.58 260.152V263.293C128.879 262.669 130.275 262.56 131.767 262.56C134.287 262.56 134.262 266.449 134.803 268.214C134.915 268.581 135.026 268.761 135.117 269.156L125.064 269.159C123.833 269.158 123.085 268.853 122.136 268.632V260.152H118.158V267.376C118.158 269.544 116.534 269.156 114.598 269.156C113.672 269.156 112.59 269.015 111.786 268.723C111.49 268.615 111.308 268.51 110.934 268.423V250.94H106.956V269.993H106.956Z" fill="#FF6D00"/>
<path fill-rule="evenodd" clip-rule="evenodd" d="M34.7205 231.572C34.7205 229.768 36.1273 227.699 37.7564 227.699H38.6987C41.74 227.699 41.5253 233.038 41.5253 235.237C39.0021 235.237 36.3724 235.482 35.2076 233.493C34.9654 233.08 34.7205 232.173 34.7205 231.572V231.572ZM30.3236 231.677C30.3236 234.366 31.3877 236.51 33.6014 237.821C35.9991 239.241 37.4679 239.11 41.1065 239.11C40.8011 240.254 38.6666 241.459 37.6228 241.908C36.196 242.52 34.1589 243.052 32.5219 243.088C32.5219 243.98 32.92 246.039 32.9406 246.962C36.0102 246.962 40.481 245.292 42.5484 243.588C43.8477 242.517 45.5218 240.828 45.922 239.11H58.5893V224.453H53.8783V235.236H46.236C46.236 231.794 46.5641 228.932 44.4136 226.171C41.8114 222.83 34.0743 222.454 31.0543 228.534C30.7002 229.247 30.3232 230.604 30.3232 231.677H30.3236Z" fill="#FF6D00"/>
<path fill-rule="evenodd" clip-rule="evenodd" d="M70.0006 269.156H65.2896C64.2378 269.156 64.0195 267.088 63.8838 266.269C63.6785 265.03 63.5505 263.743 63.1232 262.738C60.7719 257.204 54.4285 260.022 53.2503 260.048V263.293C54.4706 262.647 55.9795 262.56 57.4378 262.56C58.7206 262.56 59.526 264.015 59.801 265.118C60.1676 266.588 60.1563 267.962 60.7878 269.156C58.5062 269.156 50.9288 269.362 48.859 268.941C48.2883 268.824 48.0043 268.647 47.4922 268.528C47.6108 268.281 47.7016 267.453 47.7016 267.062C47.7016 264.008 44.8253 260.741 42.7018 258.871C42.395 258.601 41.8937 258.129 41.6296 258.059L38.7773 260.86C39.16 261.074 39.0558 261.006 39.3545 261.276C40.5547 262.363 41.8317 263.426 42.7402 264.8C44.0163 266.731 44.6983 269.156 41.4203 269.156H35.2437V272.506C37.5934 272.506 42.1145 272.749 44.0513 272.101C45.1718 271.726 45.2189 271.581 46.0266 271.04C46.376 271.134 46.5771 271.345 46.8952 271.533C47.8577 272.101 49.0883 272.506 50.3188 272.506H73.9786V250.94H70.0004V269.156L70.0006 269.156Z" fill="#FF6D00"/>
<path fill-rule="evenodd" clip-rule="evenodd" d="M140.771 231.677C140.771 230.147 142.046 229.241 143.197 228.555C143.858 228.161 146.517 227.197 147.471 227.175V232.933C147.471 233.485 145.213 234.085 144.435 234.085C143.323 234.085 142.376 234.209 141.474 233.382C141.124 233.06 140.771 232.297 140.771 231.677H140.771ZM147.471 223.197C147.471 223.571 146.545 223.691 145.753 223.888C142.44 224.71 138.339 226.554 136.79 229.685C135.718 231.853 136.255 234.828 138.24 236.406C140.766 238.412 144.942 238.416 147.785 236.911C149.029 239.263 152.073 239.215 154.799 239.215H164.012C164.253 239.215 164.326 239.142 164.326 238.901V224.453H159.615V235.236C158.645 235.236 153.599 235.333 152.878 235.064C152.395 234.883 152.19 234.307 152.177 233.671L152.191 222.141C152.194 221.751 152.272 221.417 151.868 221.417H147.471V223.197Z" fill="#FF6D00"/>
<path fill-rule="evenodd" clip-rule="evenodd" d="M91.776 238.691C91.776 240.296 90.8948 241.165 89.5094 241.869C84.8408 244.239 74.0548 243.06 77.1046 233.861L77.9426 232.186C78.111 231.946 78.1221 231.959 78.271 231.677L75.4444 230.107C75.0932 229.934 74.7619 229.668 74.3975 229.583C74.3356 229.815 68.0309 238.358 75.5346 244.359C77.2304 245.715 80.477 246.962 83.5055 246.962C86.1056 246.962 87.2427 247.07 89.8274 246.165C91.41 245.61 93.1695 244.525 94.3168 243.326C95.6298 241.954 96.5916 240.177 96.5916 238.063C96.5916 237.016 95.4108 235.568 94.7365 234.893C94.4069 234.564 94.1776 234.442 93.8441 234.11C92.3183 232.593 90.6243 232.146 90.6243 230.107C90.6243 229.133 92.0067 228.432 93.0322 228.432C95.9226 228.432 96.1736 229.186 97.4291 229.478C97.4683 229.007 98.4223 225.937 98.476 225.291C97.4045 225.202 97.0575 224.453 92.9275 224.453C86.8494 224.453 83.0163 230.798 88.4858 235.072C89.4519 235.826 91.7759 237.577 91.7759 238.691L91.776 238.691Z" fill="#FF6D00"/>
<path fill-rule="evenodd" clip-rule="evenodd" d="M20.1686 238.691C20.1686 240.296 19.2875 241.165 17.9021 241.869C14.9304 243.377 9.8279 243.297 7.15488 241.341C4.25216 239.217 4.56311 234.714 6.33524 232.186C6.50368 231.946 6.51473 231.958 6.66363 231.677C6.11554 231.31 5.38321 230.945 4.77793 230.631C4.43943 230.456 4.19659 230.284 3.83705 230.107C3.48588 229.934 3.15459 229.668 2.79017 229.583C2.67741 230.006 2.12839 230.62 1.88195 231.083C-0.599848 235.739 -0.447229 240.86 3.92725 244.359C5.62302 245.715 8.86959 246.962 11.8981 246.962C14.4982 246.962 15.6353 247.07 18.22 246.165C20.5817 245.337 21.7601 244.334 23.2317 242.697C23.4821 242.418 23.5573 242.31 23.7714 241.98C25.5782 239.195 25.4322 237.196 23.1291 234.893C22.0684 233.832 19.017 231.86 19.017 230.63V230.107C19.017 229.133 20.3993 228.432 21.4248 228.432C24.3152 228.432 24.5662 229.186 25.8217 229.478C25.8609 229.007 26.8149 225.937 26.8686 225.291C26.4809 225.259 26.3292 225.154 25.9646 225.043C25.6224 224.94 25.251 224.859 24.9642 224.787C22.0853 224.071 18.5394 224.381 16.2785 226.217C14.1275 227.963 13.5651 230.895 15.2031 233.292C15.6057 233.881 16.3208 234.636 16.8785 235.072C17.8445 235.826 20.1686 237.577 20.1686 238.691V238.691Z" fill="#FF6D00"/>
<path fill-rule="evenodd" clip-rule="evenodd" d="M123.078 231.468C123.078 229.661 124.468 227.699 126.114 227.699C127.949 227.699 128.839 228.005 129.489 230.187C129.897 231.558 129.883 233.105 129.883 234.922C126.786 235.644 123.078 235.367 123.078 231.467L123.078 231.468ZM118.681 231.363C118.681 233.91 119.079 235.394 120.904 237.201C122.765 239.045 125.055 239.215 127.58 239.215C128.382 239.215 128.805 239.06 129.464 239.005C128.994 241.025 123.796 242.983 121.403 242.983H120.88L121.162 245.946C121.259 246.796 120.612 247.226 124.013 246.535C127.869 245.751 131.468 244.658 133.444 240.891C134.876 238.163 134.594 235.112 134.594 231.991C134.594 228.896 133.389 225.91 130.862 224.625C128.534 223.442 125.715 223.605 123.33 224.6C122.948 224.759 122.433 225.081 122.135 225.29C121.746 225.564 121.462 225.805 121.115 226.154C120.482 226.793 119.901 227.444 119.489 228.297C119.146 229.008 118.681 230.37 118.681 231.363L118.681 231.363Z" fill="#FF6D00"/>
<path fill-rule="evenodd" clip-rule="evenodd" d="M12.8408 260.78C13.0846 261.145 14.9292 262.518 15.728 263.546C16.1721 264.118 16.5824 264.508 16.9578 265.143C17.5225 266.1 18.4776 268.136 16.96 268.878C16.0028 269.346 10.5795 269.156 9.17676 269.156V272.506H15.6675C18.291 272.506 19.6037 271.172 20.1691 271.04C21.4615 271.905 22.472 272.506 24.3567 272.506H32.7318V260.152H28.7537V269.156C26.6749 269.156 24.0534 269.352 22.2238 268.776C21.8742 268.666 21.8523 268.602 21.5301 268.527L21.6348 266.748C21.6348 263.782 18.7694 260.76 16.6891 258.921C16.2491 258.533 16.1828 258.404 15.6676 258.059C15.3904 258.244 15.2091 258.462 14.9614 258.713C14.4269 259.256 13.37 259.991 12.841 260.781L12.8408 260.78Z" fill="#FF6D00"/>
<path fill-rule="evenodd" clip-rule="evenodd" d="M104.129 232.305C104.129 230.844 104.14 229.794 104.865 228.539C106.023 226.533 108.538 226.242 109.785 228.639C110.998 230.972 111.012 235.395 107.502 235.203C105.668 235.102 104.129 234.404 104.129 232.305H104.129ZM99.7325 231.991C99.7325 235.022 100.803 237.216 103.607 238.481C105.383 239.281 106.654 239.11 108.631 239.11C110.666 239.11 112.561 237.806 113.521 236.672C116.642 232.985 114.749 226.228 110.9 224.173C106.581 221.867 102.139 224.308 100.404 228.579C100.053 229.442 99.7324 230.832 99.7324 231.991H99.7325Z" fill="#FF6D00"/>
<path fill-rule="evenodd" clip-rule="evenodd" d="M77.748 28.1353C79.0635 28.1353 80.4583 28.0511 81.8309 28.0556C82.5036 28.0578 85.4917 28.2798 85.7634 28.1613C85.7978 27.8192 85.6383 26.8716 85.5807 26.4008C85.5139 25.8564 85.4333 25.2616 85.3441 24.6483L82.3852 1.74889C82.3022 1.11699 82.2717 0.543323 82.1451 0C82.1309 0.0223188 82.1174 0.0341756 82.1131 0.0726523C82.1088 0.111594 82.0884 0.12973 82.0827 0.146934L81.8003 1.64427C81.7193 2.13621 81.6047 2.86134 81.5345 3.36746C81.3672 4.57268 81.1928 5.73872 80.9936 6.90941C80.5933 9.26148 80.2733 11.5676 79.9025 13.9841L78.2542 24.5845C78.1376 25.424 77.7482 27.5035 77.7482 28.1354L77.748 28.1353Z" fill="#FDBD11"/>
<path fill-rule="evenodd" clip-rule="evenodd" d="M57.9616 32.8434C58.4583 32.7155 59.2096 32.3374 59.7275 32.125C60.3353 31.8758 60.972 31.6347 61.6189 31.4008C62.8651 30.9503 64.2061 30.4861 65.4992 30.1697L55.1683 11.5868C54.5777 10.5233 54.0173 9.57642 53.4266 8.5129C53.1122 7.9468 52.891 7.52251 52.5619 6.96977L51.6802 5.4436C51.6918 5.9624 52.281 8.22346 52.4349 8.8764L56.39 25.9638C56.6621 27.0824 56.8924 28.1937 57.1871 29.3542L57.9615 32.8433L57.9616 32.8434Z" fill="#FDBD11"/>
<path fill-rule="evenodd" clip-rule="evenodd" d="M98.0574 30.255L98.4771 30.4681C98.6634 30.5305 98.7858 30.5534 98.9655 30.6034L103.704 32.1456C104.275 32.3572 104.992 32.6984 105.595 32.8224C105.637 32.2093 106.233 30.2154 106.411 29.5013L109.866 16.2053C110.177 15.0718 110.448 13.9848 110.725 12.8767C111.008 11.7431 111.294 10.7069 111.583 9.54782C111.719 9.00578 111.875 8.4878 112.024 7.89472C112.15 7.39511 112.389 6.66556 112.4 6.17664L110.626 9.11376C110.02 10.1258 109.439 11.1275 108.834 12.1381L103.457 21.2076C102.294 23.1861 99.1053 28.6894 98.0571 30.2551L98.0574 30.255Z" fill="#FDBD11"/>
<path fill-rule="evenodd" clip-rule="evenodd" d="M41.1064 44.2875L47.0014 39.2583C46.5619 38.7531 32.455 27.459 30.8922 26.2316L25.5078 21.8799C25.5924 22.2431 25.7447 22.3645 25.9255 22.6137L31.2661 30.2547C31.5987 30.7235 31.9091 31.1665 32.2684 31.6602C34.3198 34.4788 36.5341 37.8205 38.5943 40.7236L40.583 43.5505C40.7541 43.8105 40.9468 44.0429 41.1064 44.2874V44.2875Z" fill="#00BF00"/>
<path fill-rule="evenodd" clip-rule="evenodd" d="M29.1722 61.2209C29.4495 60.9081 30.5479 58.5168 30.8654 57.9158C31.1499 57.3773 31.4335 56.8239 31.7496 56.2825C32.0326 55.7977 32.5051 55.096 32.6875 54.6477L16.9908 49.8695C16.0968 49.6041 7.92507 47.0171 7.39697 47.0054L29.1723 61.2209H29.1722Z" fill="#00BF00"/>
<path fill-rule="evenodd" clip-rule="evenodd" d="M117.533 39.0489L122.552 42.9267C122.9 43.2287 122.885 43.3308 123.287 43.5486L126.039 39.8116C126.377 39.3613 126.643 39.0065 126.982 38.5561C127.304 38.1277 127.541 37.7737 127.864 37.3441L137.167 24.767C137.346 24.5182 137.419 24.3898 137.6 24.1529C137.786 23.9085 137.97 23.7449 138.048 23.4503C137.647 23.5575 135.816 25.0724 135.446 25.3499C129.707 29.6545 123.909 34.2662 118.172 38.5405L117.699 38.9041C117.684 38.9171 117.658 38.9404 117.644 38.9522L117.533 39.0489H117.533Z" fill="#FF0000"/>
<path fill-rule="evenodd" clip-rule="evenodd" d="M24.1471 81.8251C24.2884 81.5739 24.4178 78.8082 24.4846 78.215C24.6173 77.0377 24.8129 75.8973 24.9845 74.7479C24.3751 74.7479 24.0653 74.8226 23.4161 74.8545L15.6513 75.5694C14.5202 75.6883 13.5689 75.6917 12.4378 75.8107L0 77.0149C0.598074 77.2416 10.937 79.2142 11.9421 79.4153C14.0353 79.834 15.9843 80.1998 18.0671 80.6186C19.0665 80.8196 20.1203 81.0301 21.1197 81.2299C22.0858 81.4231 23.2804 81.6075 24.1471 81.8251Z" fill="#00BF00"/>
<path fill-rule="evenodd" clip-rule="evenodd" d="M28.8607 103.014C28.4995 101.976 27.9118 100.847 27.4729 99.7916C27.2304 99.2083 27.0349 98.7525 26.7986 98.1635C26.6404 97.769 26.3488 96.735 26.1358 96.4426C25.5566 96.5138 23.9818 97.4859 23.4153 97.7808L4.29154 107.447C4.27225 107.458 4.24505 107.475 4.22692 107.487C4.03174 107.612 4.1524 107.528 4.04639 107.62L7.15974 107.069C8.14398 106.879 9.26608 106.686 10.2504 106.496C11.4255 106.269 28.1997 103.014 28.8606 103.014L28.8607 103.014Z" fill="#00BF00"/>
<path fill-rule="evenodd" clip-rule="evenodd" d="M138.119 83.2278C138.626 83.0231 158.165 79.8137 160.915 79.2937L162.228 79.0358C162.486 78.9428 162.329 79.0067 162.441 78.9355L144.207 76.8605C143.15 76.7432 142.224 76.6138 141.192 76.5248C140.176 76.4372 139.119 76.2136 138.049 76.2136C138.113 77.3583 138.141 78.4886 138.158 79.6684C138.174 80.8149 138.06 82.1204 138.119 83.2278Z" fill="#FF0000"/>
<path fill-rule="evenodd" clip-rule="evenodd" d="M77.748 272.506H81.7263V250.94H77.748V272.506Z" fill="#FF6D00"/>
<path fill-rule="evenodd" clip-rule="evenodd" d="M152.182 272.506H156.16V250.94H152.182V272.506Z" fill="#FF6D00"/>
<path fill-rule="evenodd" clip-rule="evenodd" d="M133.832 104.48C134.294 104.489 134.946 104.687 135.354 104.767C135.886 104.872 136.351 104.988 136.819 105.081C137.801 105.275 138.824 105.497 139.745 105.715C144.996 106.956 150.643 107.965 155.93 109.212C156.295 109.298 157.09 109.495 157.521 109.505L153.544 107.305C153.307 107.182 153.109 107.1 152.844 106.958L146.739 103.641C143.912 102.247 140.115 99.9395 137.281 98.5475C136.9 98.3602 136.235 98.0111 135.955 97.792C135.669 98.1556 135.104 100.507 134.913 101.136C134.623 102.092 133.966 103.625 133.832 104.48L133.832 104.48Z" fill="#FF0000"/>
<path fill-rule="evenodd" clip-rule="evenodd" d="M132.417 55.171C132.657 55.9496 133.481 57.298 133.863 58.2045C134.13 58.836 134.93 61.0779 135.222 61.4523L154.465 49.6021C154.973 49.2814 155.35 49.1253 155.741 48.7849L144.061 51.9708C142.099 52.5313 140.15 53.0919 138.236 53.5786L132.417 55.1709V55.171Z" fill="#FF0000"/>
<path fill-rule="evenodd" clip-rule="evenodd" d="M68.6402 29.357L74.4493 28.3707C74.4544 27.9321 69.9518 14.5601 69.5957 13.4915C69.3168 12.6546 69.0703 11.9146 68.7843 11.0574L67.9072 8.58435C67.9072 12.14 68.2332 15.4575 68.2189 18.9511L68.4306 24.0785C68.4262 25.7883 68.64 27.6508 68.64 29.357H68.6402Z" fill="#FDBD11"/>
<path fill-rule="evenodd" clip-rule="evenodd" d="M89.0566 28.4753L94.9167 29.5352C94.9167 27.7569 95.0903 26.0472 95.2252 24.3869C95.3002 23.4646 95.2875 22.6988 95.3351 21.7749C95.3716 21.0658 95.5088 19.9722 95.5453 19.2631C95.5928 18.3392 95.5801 17.5732 95.6551 16.651L96.173 8.89844L95.8985 9.35679C94.8901 11.8429 93.6327 15.9516 92.5828 18.6039C92.2493 19.4463 92.0354 20.2301 91.702 21.0731C91.3666 21.9209 91.1348 22.6937 90.8187 23.5398L89.0566 28.4753Z" fill="#FDBD11"/>
<path fill-rule="evenodd" clip-rule="evenodd" d="M49.7959 37.3031C50.223 37.1669 51.8333 36.1094 52.3166 35.8108C52.822 35.4987 54.5625 34.6451 54.8274 34.3379C54.6739 34.1216 54.607 34.0921 54.4341 33.8867L48.2022 26.5096C48.0234 26.3044 48.0109 26.2445 47.8313 26.0431L46.5768 24.5756C46.2991 24.2842 46.0137 23.9422 45.7576 23.615C45.5514 23.3515 45.5361 23.3416 45.3206 23.1098C45.1142 22.8878 45.0921 22.8113 44.8988 22.5895L41.8259 18.9622C41.541 18.6871 41.916 18.8806 41.5254 18.7393L43.6044 23.3603C43.9344 24.171 44.2828 24.8583 44.636 25.6788C44.9775 26.4721 45.31 27.2003 45.6777 27.987L49.7958 37.3031H49.7959Z" fill="#FDBD11"/>
<path fill-rule="evenodd" clip-rule="evenodd" d="M34.825 51.4427C34.846 51.4247 34.8761 51.3673 34.8851 51.3856L38.3626 47.11C37.7262 46.9452 27.1074 41.1548 25.4742 40.3388C24.6921 39.9481 24.1134 39.6061 23.3442 39.2233C22.9109 39.0077 22.6268 38.8493 22.2578 38.6348C21.9616 38.4626 21.4638 38.1889 21.1108 38.1067L23.598 40.6446C25.2739 42.1205 28.003 44.8367 29.6169 46.4558L31.3442 48.0784C31.9284 48.6625 32.4343 49.1686 33.0177 49.755L34.825 51.4427Z" fill="#00BF00"/>
<path fill-rule="evenodd" clip-rule="evenodd" d="M109.132 34.3379C109.503 34.7248 111.019 35.308 111.63 35.6305C112.297 35.9831 113.472 36.7162 114.075 36.9056L116.064 32.6628C117.408 29.9824 118.768 26.8199 120.112 24.1479C120.449 23.477 122.024 20.2671 122.136 19.786C121.704 20.0749 121.679 20.2884 121.326 20.6516L120.121 21.9591C119.937 22.1678 119.938 22.2196 119.753 22.4285L114.014 28.8334C113.711 29.2252 113.495 29.3731 113.221 29.7158C112.914 30.1005 112.662 30.3101 112.384 30.6581C112.082 31.0363 111.883 31.1952 111.593 31.542L109.598 33.8387C109.416 34.044 109.311 34.1153 109.132 34.3377L109.132 34.3379Z" fill="#FDBD11"/>
<path fill-rule="evenodd" clip-rule="evenodd" d="M25.959 70.4557L27.4971 65.4306C25.9379 65.4306 24.3961 65.1395 22.8937 65.0089C18.4475 64.6227 13.4631 63.9116 9.07178 63.5463C9.3596 63.9389 10.6286 64.2948 11.0759 64.4735L21.6506 68.7647C22.176 68.9762 25.4938 70.4215 25.9591 70.4558L25.959 70.4557Z" fill="#00BF00"/>
<path fill-rule="evenodd" clip-rule="evenodd" d="M136.897 93.2779L143.388 93.3825C144.282 93.3804 144.756 93.4934 145.585 93.4887C148.61 93.4713 151.324 93.592 154.381 93.592C154.089 93.3896 153.733 93.3337 153.378 93.2337L138.873 88.6857C138.511 88.5641 138.134 88.3936 137.735 88.3529L136.898 93.278L136.897 93.2779Z" fill="#FF0000"/>
<path fill-rule="evenodd" clip-rule="evenodd" d="M24.9845 91.9169L24.2517 87.0295C23.7028 87.0744 10.422 90.9136 8.51185 91.4617C8.26844 91.5314 8.23974 91.5377 8.02131 91.5992C7.86462 91.6434 7.9432 91.608 7.77871 91.6707L7.50146 91.8122C13.3606 91.8122 19.0454 91.9169 24.9845 91.9169Z" fill="#00BF00"/>
<path fill-rule="evenodd" clip-rule="evenodd" d="M136.688 66.6869L137.63 71.4161L141.623 69.9473C142.289 69.6777 142.942 69.4579 143.597 69.1994C144.514 68.8375 153.241 65.738 153.542 65.3259C153.093 65.3259 151.932 65.4526 151.524 65.5063C150.778 65.6048 150.117 65.5882 149.361 65.6462C148.777 65.6909 147.852 65.8181 147.259 65.8474L143.074 66.1635C141.565 66.2011 138.023 66.6572 136.688 66.6869H136.688Z" fill="#FF0000"/>
<path fill-rule="evenodd" clip-rule="evenodd" d="M126.839 47.11C127.065 47.5261 127.243 47.6699 127.575 48.0564C127.836 48.3604 128.12 48.7435 128.364 49.0495C128.704 49.4766 129.587 50.7746 129.883 50.9901L141.43 40.336C141.795 40.0307 141.966 39.9752 142.236 39.5723L138.398 41.3869C137.077 42.0473 135.88 42.6459 134.559 43.3062C133.922 43.625 127.332 46.9992 126.839 47.11Z" fill="#FF0000"/>
<path fill-rule="evenodd" clip-rule="evenodd" d="M79.9464 208.959C82.0327 208.959 83.5125 208.883 85.2919 207.814C85.8889 207.455 86.2888 207.177 86.7778 206.683C87.2296 206.226 87.7077 205.757 88.0074 205.19H73.1416C74.3488 206.993 76.9518 208.959 79.9464 208.959Z" fill="#FF6D00"/>
<path fill-rule="evenodd" clip-rule="evenodd" d="M9.8045 226.129C11.6321 226.129 11.0093 226.425 12.1087 224.769C12.4141 224.309 14.8355 220.636 14.9342 220.266H12.6311L10.5373 224.244C10.1386 224.138 10.2824 224.122 9.83822 223.373L8.55291 221.308C8.33856 220.952 8.14514 220.602 7.91997 220.266H5.51221C5.60462 220.612 8.55733 224.637 9.11332 225.459C9.28269 225.709 9.47344 226.129 9.8045 226.129V226.129Z" fill="#FF6D00"/>
<path fill-rule="evenodd" clip-rule="evenodd" d="M159.51 217.753C159.51 218.675 160.013 219.371 160.704 219.805C161.804 220.495 164.221 219.872 164.221 217.753C164.221 216.637 163.228 215.45 162.128 215.45C161.275 215.45 160.717 215.504 160.121 216.165C159.819 216.5 159.51 217.139 159.51 217.753V217.753Z" fill="#FF6D00"/>
<path fill-rule="evenodd" clip-rule="evenodd" d="M53.7739 217.753C53.7739 218.912 54.7404 220.056 55.8677 220.056H56.3912C57.4918 220.056 58.485 218.869 58.485 217.753C58.485 216.637 57.4918 215.45 56.3912 215.45C55.5382 215.45 54.9811 215.504 54.3845 216.165C54.0828 216.5 53.7739 217.139 53.7739 217.753V217.753Z" fill="#FF6D00"/>
<path fill-rule="evenodd" clip-rule="evenodd" d="M130.407 276.693C130.407 279.343 134.385 279.532 134.385 276.693C134.385 274.899 131.715 273.94 130.655 275.895C130.576 276.041 130.407 276.54 130.407 276.693Z" fill="#FF6D00"/>
<path fill-rule="evenodd" clip-rule="evenodd" d="M56.0771 276.693C56.0771 279.392 59.858 279.414 60.0295 276.883C60.138 275.281 58.0585 274.029 56.7275 275.355C56.3617 275.719 56.0771 275.991 56.0771 276.693Z" fill="#FF6D00"/>
<path fill-rule="evenodd" clip-rule="evenodd" d="M29.3813 276.693C29.3813 279.392 33.3595 279.369 33.3595 276.798C33.3595 274.693 30.4908 274.092 29.62 275.885C29.5573 276.014 29.3813 276.572 29.3813 276.693Z" fill="#FF6D00"/>
<path fill-rule="evenodd" clip-rule="evenodd" d="M115.75 276.484C115.75 277.302 115.838 278.126 116.898 278.581C118.324 279.194 119.624 278.165 119.624 276.693C119.624 275.283 117.833 274.093 116.357 275.311C116.111 275.513 115.75 276.076 115.75 276.484V276.484Z" fill="#FF6D00"/>
<path fill-rule="evenodd" clip-rule="evenodd" d="M120.251 276.484C120.251 277.302 120.339 278.126 121.4 278.581C122.825 279.194 124.125 278.165 124.125 276.693C124.125 275.283 122.335 274.093 120.858 275.311C120.613 275.513 120.251 276.076 120.251 276.484V276.484Z" fill="#FF6D00"/>
<path fill-rule="evenodd" clip-rule="evenodd" d="M28.858 276.798C28.858 275.728 27.9388 274.809 26.8689 274.809C25.0892 274.809 24.3417 277.013 25.4978 278.169C26.654 279.325 28.858 278.578 28.858 276.798Z" fill="#FF6D00"/>
<path fill-rule="evenodd" clip-rule="evenodd" d="M142.236 39.5724H142.341L142.254 39.4502L142.236 39.5724Z" fill="#FF0000"/>
<path fill-rule="evenodd" clip-rule="evenodd" d="M21.1109 38.1066V38.002L20.9888 38.0891L21.1109 38.1066Z" fill="#00BF00"/>
<path fill-rule="evenodd" clip-rule="evenodd" d="M138.049 23.4502H138.154L138.066 23.3281L138.049 23.4502Z" fill="#FF0000"/>
</svg>
