<svg width="102" height="100" viewBox="0 0 102 100" fill="none" xmlns="http://www.w3.org/2000/svg">
<path d="M55.9997 67.9166H45.9997C36.9497 67.9166 33.083 64.0499 33.083 54.9999V44.9999C33.083 35.9499 36.9497 32.0833 45.9997 32.0833H55.9997C65.0497 32.0833 68.9163 35.9499 68.9163 44.9999V54.9999C68.9163 64.0499 65.0497 67.9166 55.9997 67.9166ZM45.9997 34.5833C38.3163 34.5833 35.583 37.3166 35.583 44.9999V54.9999C35.583 62.6833 38.3163 65.4166 45.9997 65.4166H55.9997C63.683 65.4166 66.4163 62.6833 66.4163 54.9999V44.9999C66.4163 37.3166 63.683 34.5833 55.9997 34.5833H45.9997Z" fill="#ABABAB"/>
<path d="M45.9998 47.9167C43.4665 47.9167 41.4165 45.8667 41.4165 43.3333C41.4165 40.8 43.4665 38.75 45.9998 38.75C48.5332 38.75 50.5832 40.8 50.5832 43.3333C50.5832 45.8667 48.5332 47.9167 45.9998 47.9167ZM45.9998 41.25C44.8498 41.25 43.9165 42.1833 43.9165 43.3333C43.9165 44.4833 44.8498 45.4167 45.9998 45.4167C47.1498 45.4167 48.0832 44.4833 48.0832 43.3333C48.0832 42.1833 47.1498 41.25 45.9998 41.25Z" fill="#ABABAB"/>
<path d="M35.4497 62.8333C35.0497 62.8333 34.6497 62.6333 34.4164 62.2833C34.033 61.7167 34.183 60.9333 34.7664 60.55L42.983 55.0333C44.783 53.8167 47.2664 53.9667 48.8997 55.35L49.4497 55.8333C50.283 56.55 51.6997 56.55 52.5164 55.8333L59.4497 49.8833C61.2164 48.3667 63.9997 48.3667 65.783 49.8833L68.4997 52.2167C69.0164 52.6667 69.083 53.45 68.633 53.9833C68.183 54.5 67.3997 54.5667 66.8664 54.1167L64.1497 51.7833C63.3164 51.0667 61.8997 51.0667 61.0664 51.7833L54.133 57.7333C52.3664 59.25 49.583 59.25 47.7997 57.7333L47.2497 57.25C46.483 56.6 45.2164 56.5333 44.3664 57.1167L36.1497 62.6333C35.933 62.7667 35.683 62.8333 35.4497 62.8333Z" fill="#ABABAB"/>
</svg>
