<svg width="24" height="24" viewBox="0 0 24 24" fill="none" xmlns="http://www.w3.org/2000/svg">
<path fill-rule="evenodd" clip-rule="evenodd" d="M7.13807 6.19526C6.87772 5.93491 6.45561 5.93491 6.19526 6.19526C5.93491 6.45561 5.93491 6.87772 6.19526 7.13807L11.0572 12L6.19526 16.8619C5.93491 17.1223 5.93491 17.5444 6.19526 17.8047C6.45561 18.0651 6.87772 18.0651 7.13807 17.8047L12 12.9428L16.8619 17.8047C17.1223 18.0651 17.5444 18.0651 17.8047 17.8047C18.0651 17.5444 18.0651 17.1223 17.8047 16.8619L12.9428 12L17.8047 7.13807C18.0651 6.87772 18.0651 6.45561 17.8047 6.19526C17.5444 5.93491 17.1223 5.93491 16.8619 6.19526L12 11.0572L7.13807 6.19526Z" fill="black"/>
</svg>
