<svg width="328" height="229" viewBox="0 0 328 229" fill="none" xmlns="http://www.w3.org/2000/svg">
<rect width="328" height="229" rx="8" fill="#FAFAFA"/>
<path d="M172 143.667H156C141.52 143.667 135.333 137.48 135.333 123V107C135.333 92.5202 141.52 86.3335 156 86.3335H172C186.48 86.3335 192.667 92.5202 192.667 107V123C192.667 137.48 186.48 143.667 172 143.667ZM156 90.3335C143.707 90.3335 139.333 94.7068 139.333 107V123C139.333 135.293 143.707 139.667 156 139.667H172C184.293 139.667 188.667 135.293 188.667 123V107C188.667 94.7068 184.293 90.3335 172 90.3335H156Z" fill="#ABABAB"/>
<path d="M156 111.667C151.947 111.667 148.667 108.387 148.667 104.333C148.667 100.28 151.947 97 156 97C160.053 97 163.333 100.28 163.333 104.333C163.333 108.387 160.053 111.667 156 111.667ZM156 101C154.16 101 152.667 102.493 152.667 104.333C152.667 106.173 154.16 107.667 156 107.667C157.84 107.667 159.333 106.173 159.333 104.333C159.333 102.493 157.84 101 156 101Z" fill="#ABABAB"/>
<path d="M139.12 135.533C138.48 135.533 137.84 135.213 137.467 134.653C136.853 133.746 137.093 132.493 138.027 131.88L151.173 123.053C154.053 121.106 158.027 121.346 160.64 123.56L161.52 124.333C162.853 125.48 165.12 125.48 166.427 124.333L177.52 114.813C180.347 112.386 184.8 112.386 187.653 114.813L192 118.546C192.827 119.266 192.933 120.52 192.213 121.373C191.493 122.2 190.24 122.306 189.387 121.586L185.04 117.853C183.707 116.706 181.44 116.706 180.107 117.853L169.013 127.373C166.187 129.8 161.733 129.8 158.88 127.373L158 126.6C156.773 125.56 154.747 125.453 153.387 126.386L140.24 135.213C139.893 135.426 139.493 135.533 139.12 135.533Z" fill="#ABABAB"/>
</svg>
