<svg width="328" height="229" viewBox="0 0 328 229" fill="none" xmlns="http://www.w3.org/2000/svg">
<rect width="328" height="229" rx="8" fill="#FAFAFA"/>
<path d="M169.363 132.916H159.363C150.313 132.916 146.447 129.05 146.447 120V110C146.447 100.95 150.313 97.083 159.363 97.083H169.363C178.413 97.083 182.28 100.95 182.28 110V120C182.28 129.05 178.413 132.916 169.363 132.916ZM159.363 99.583C151.68 99.583 148.947 102.316 148.947 110V120C148.947 127.683 151.68 130.416 159.363 130.416H169.363C177.047 130.416 179.78 127.683 179.78 120V110C179.78 102.316 177.047 99.583 169.363 99.583H159.363Z" fill="#ABABAB"/>
<path d="M159.364 112.917C156.83 112.917 154.78 110.867 154.78 108.333C154.78 105.8 156.83 103.75 159.364 103.75C161.897 103.75 163.947 105.8 163.947 108.333C163.947 110.867 161.897 112.917 159.364 112.917ZM159.364 106.25C158.214 106.25 157.28 107.183 157.28 108.333C157.28 109.483 158.214 110.417 159.364 110.417C160.514 110.417 161.447 109.483 161.447 108.333C161.447 107.183 160.514 106.25 159.364 106.25Z" fill="#ABABAB"/>
<path d="M148.813 127.834C148.413 127.834 148.013 127.634 147.78 127.284C147.397 126.717 147.547 125.934 148.13 125.55L156.347 120.034C158.147 118.817 160.63 118.967 162.263 120.35L162.813 120.834C163.647 121.55 165.063 121.55 165.88 120.834L172.813 114.884C174.58 113.367 177.363 113.367 179.147 114.884L181.863 117.217C182.38 117.667 182.447 118.45 181.997 118.984C181.547 119.5 180.763 119.567 180.23 119.117L177.513 116.784C176.68 116.067 175.263 116.067 174.43 116.784L167.497 122.734C165.73 124.25 162.947 124.25 161.163 122.734L160.613 122.25C159.847 121.6 158.58 121.534 157.73 122.117L149.513 127.634C149.297 127.767 149.047 127.834 148.813 127.834Z" fill="#ABABAB"/>
<rect x="115" y="66" width="98" height="98" rx="49" stroke="#FF6D00" stroke-width="2"/>
<path d="M200.727 136.788C193.747 136.788 188.061 142.474 188.061 149.455C188.061 156.435 193.747 162.121 200.727 162.121C207.708 162.121 213.394 156.435 213.394 149.455C213.394 142.474 207.708 136.788 200.727 136.788Z" fill="#FF6D00" stroke="white" stroke-width="2"/>
</svg>
