<svg width="25" height="24" viewBox="0 0 25 24" fill="none" xmlns="http://www.w3.org/2000/svg">
<path d="M18.82 12.75H15.5C13.01 12.75 11.75 11.34 11.75 8.54996V5.67996C11.75 4.65996 11.87 3.19996 12.93 2.39996C13.82 1.73996 15.1 1.68996 16.99 2.23996C19.47 2.95996 21.54 5.02996 22.26 7.50996C22.81 9.38996 22.76 10.68 22.1 11.56C21.3 12.63 19.84 12.75 18.82 12.75ZM14.78 3.35996C14.37 3.35996 14.05 3.43996 13.84 3.59996C13.45 3.88996 13.26 4.56996 13.26 5.67996V8.55996C13.26 10.8 14.12 11.26 15.51 11.26H18.83C19.93 11.26 20.61 11.07 20.91 10.68C21.26 10.22 21.23 9.29996 20.84 7.94996C20.26 5.97996 18.56 4.26996 16.59 3.69996C15.85 3.46996 15.25 3.35996 14.78 3.35996Z" fill="#999999"/>
<path d="M11.5699 22.7498C11.0399 22.7498 10.4999 22.7098 9.95988 22.6198C5.86988 21.9598 2.53988 18.6398 1.87988 14.5498C1.02988 9.28983 4.41988 4.32983 9.60988 3.26983C10.0199 3.18983 10.4099 3.44983 10.4999 3.84983C10.5799 4.25983 10.3199 4.64983 9.91988 4.73983C5.52988 5.63983 2.64988 9.83983 3.37988 14.3098C3.93988 17.7698 6.74988 20.5798 10.2099 21.1398C14.6999 21.8598 18.8899 18.9698 19.7799 14.5598C19.8599 14.1498 20.2599 13.8898 20.6599 13.9698C21.0699 14.0498 21.3299 14.4498 21.2499 14.8498C20.2999 19.5198 16.2199 22.7498 11.5699 22.7498Z" fill="#999999"/>
</svg>
