<svg width="25" height="24" viewBox="0 0 25 24" fill="none" xmlns="http://www.w3.org/2000/svg">
<path d="M12.62 13.53C12.6 13.53 12.57 13.53 12.55 13.53C12.52 13.53 12.48 13.53 12.45 13.53C10.18 13.46 8.47998 11.69 8.47998 9.50998C8.47998 7.28998 10.29 5.47998 12.51 5.47998C14.73 5.47998 16.54 7.28998 16.54 9.50998C16.53 11.7 14.82 13.46 12.65 13.53C12.63 13.53 12.63 13.53 12.62 13.53ZM12.5 6.96998C11.1 6.96998 9.96998 8.10998 9.96998 9.49998C9.96998 10.87 11.04 11.98 12.4 12.03C12.43 12.02 12.53 12.02 12.63 12.03C13.97 11.96 15.02 10.86 15.03 9.49998C15.03 8.10998 13.9 6.96998 12.5 6.96998Z" fill="#999999"/>
<path d="M12.4998 22.7498C9.80984 22.7498 7.23984 21.7498 5.24984 19.9298C5.06984 19.7698 4.98984 19.5298 5.00984 19.2998C5.13984 18.1098 5.87984 16.9998 7.10984 16.1798C10.0898 14.1998 14.9198 14.1998 17.8898 16.1798C19.1198 17.0098 19.8598 18.1098 19.9898 19.2998C20.0198 19.5398 19.9298 19.7698 19.7498 19.9298C17.7598 21.7498 15.1898 22.7498 12.4998 22.7498ZM6.57984 19.0998C8.23984 20.4898 10.3298 21.2498 12.4998 21.2498C14.6698 21.2498 16.7598 20.4898 18.4198 19.0998C18.2398 18.4898 17.7598 17.8998 17.0498 17.4198C14.5898 15.7798 10.4198 15.7798 7.93984 17.4198C7.22984 17.8998 6.75984 18.4898 6.57984 19.0998Z" fill="#999999"/>
<path d="M12.5 22.75C6.57 22.75 1.75 17.93 1.75 12C1.75 6.07 6.57 1.25 12.5 1.25C18.43 1.25 23.25 6.07 23.25 12C23.25 17.93 18.43 22.75 12.5 22.75ZM12.5 2.75C7.4 2.75 3.25 6.9 3.25 12C3.25 17.1 7.4 21.25 12.5 21.25C17.6 21.25 21.75 17.1 21.75 12C21.75 6.9 17.6 2.75 12.5 2.75Z" fill="#999999"/>
</svg>
