<svg width="24" height="24" viewBox="0 0 24 24" fill="none" xmlns="http://www.w3.org/2000/svg">
<path d="M14.6783 10.8001H16.1999C16.359 10.8001 16.5116 10.8633 16.6242 10.9758C16.7367 11.0883 16.7999 11.2409 16.7999 11.4001C16.7999 11.5592 16.7367 11.7118 16.6242 11.8243C16.5116 11.9369 16.359 12.0001 16.1999 12.0001H7.7999C7.64077 12.0001 7.48816 11.9369 7.37564 11.8243C7.26312 11.7118 7.1999 11.5592 7.1999 11.4001C7.1999 11.2409 7.26312 11.0883 7.37564 10.9758C7.48816 10.8633 7.64077 10.8001 7.7999 10.8001H8.7083C8.53848 10.6117 8.43272 10.3743 8.4062 10.1221C8.37968 9.86982 8.43377 9.61566 8.5607 9.39606L11.5607 4.20006C11.7198 3.92446 11.9819 3.72335 12.2893 3.64099C12.5968 3.55862 12.9243 3.60174 13.1999 3.76086L16.3175 5.56086C16.5931 5.72 16.7942 5.9821 16.8766 6.28951C16.9589 6.59691 16.9158 6.92445 16.7567 7.20006L14.6783 10.8001ZM15.7175 6.60006L12.5999 4.80006L9.5999 9.99606L10.9919 10.8001H13.2935L15.7175 6.60006ZM16.7519 9.60006L17.4443 8.40006C17.623 8.40678 17.798 8.45336 17.9564 8.53641C18.1149 8.61946 18.2527 8.73688 18.3599 8.88006L21.3599 12.8797C21.5157 13.0874 21.5999 13.34 21.5999 13.5997V19.2001C21.5999 19.5183 21.4735 19.8236 21.2484 20.0486C21.0234 20.2736 20.7182 20.4001 20.3999 20.4001H3.5999C3.28164 20.4001 2.97642 20.2736 2.75137 20.0486C2.52633 19.8236 2.3999 19.5183 2.3999 19.2001V13.5997C2.3999 13.34 2.48412 13.0874 2.6399 12.8797L5.6399 8.88006C5.75168 8.73103 5.89662 8.61006 6.06325 8.52675C6.22987 8.44344 6.41361 8.40006 6.5999 8.40006H7.7555L7.1807 9.39606C7.14324 9.46101 7.1119 9.52931 7.0871 9.60006H6.5999L3.8999 13.2001H20.0999L17.3999 9.60006H16.7519ZM3.5999 19.2001H20.3999V14.4001H3.5999V19.2001Z" fill="#999999"/>
</svg>
