<svg width="24" height="24" viewBox="0 0 24 24" fill="none" xmlns="http://www.w3.org/2000/svg">
<path d="M16.1999 10.8001H14.6783L16.7567 7.20006C16.9158 6.92445 16.9589 6.59691 16.8766 6.28951C16.7942 5.9821 16.5931 5.72 16.3175 5.56086L13.1999 3.76086C12.9243 3.60174 12.5968 3.55862 12.2893 3.64099C11.9819 3.72335 11.7198 3.92446 11.5607 4.20006L8.5607 9.39606C8.43377 9.61566 8.37968 9.86982 8.4062 10.1221C8.43272 10.3743 8.53848 10.6117 8.7083 10.8001H7.7999C7.64077 10.8001 7.48816 10.8633 7.37564 10.9758C7.26312 11.0883 7.1999 11.2409 7.1999 11.4001C7.1999 11.5592 7.26312 11.7118 7.37564 11.8243C7.48816 11.9369 7.64077 12.0001 7.7999 12.0001H16.1999C16.359 12.0001 16.5116 11.9369 16.6242 11.8243C16.7367 11.7118 16.7999 11.5592 16.7999 11.4001C16.7999 11.2409 16.7367 11.0883 16.6242 10.9758C16.5116 10.8633 16.359 10.8001 16.1999 10.8001ZM12.5999 4.80006L15.7175 6.60006L13.2935 10.8001H10.9919L9.5999 9.99606L12.5999 4.80006ZM17.4443 8.40006L16.7519 9.60006H17.3999L20.0999 13.2001H3.8999L6.5999 9.60006H7.0871C7.1116 9.52918 7.14294 9.46086 7.1807 9.39606L7.7567 8.40006H6.5999C6.41361 8.40006 6.22987 8.44344 6.06325 8.52675C5.89662 8.61006 5.75168 8.73103 5.6399 8.88006L2.6399 12.8797C2.48412 13.0874 2.3999 13.34 2.3999 13.5997V19.2001C2.3999 19.5183 2.52633 19.8236 2.75137 20.0486C2.97642 20.2736 3.28164 20.4001 3.5999 20.4001H20.3999C20.7182 20.4001 21.0234 20.2736 21.2484 20.0486C21.4735 19.8236 21.5999 19.5183 21.5999 19.2001V13.5997C21.5999 13.34 21.5157 13.0874 21.3599 12.8797L18.3599 8.88006C18.2527 8.73688 18.1149 8.61946 17.9564 8.53641C17.798 8.45336 17.623 8.40678 17.4443 8.40006Z" fill="#FF6D00"/>
</svg>
